<svg width="50" height="50" viewBox="0 0 50 50" fill="none" xmlns="http://www.w3.org/2000/svg">
<circle cx="25" cy="25" r="24" stroke="$main-color" stroke-width="2"/>
<g clip-path="url(#clip0)">
<path fill-rule="evenodd" clip-rule="evenodd" d="M37.9632 11.0741C36.5114 9.57036 34.0225 9.57036 32.5706 11.0741L29.6669 14.0815L28.4225 15.3704L13.2817 30.837L11.0002 38.1407C10.7928 38.5704 11.2076 39.2148 11.8299 39L18.8817 36.637L37.9632 16.8741C39.4151 15.1555 39.4151 12.7926 37.9632 11.0741ZM14.7336 32.3407L17.4299 35.1333L13.2817 36.637L14.7336 32.3407ZM18.8817 33.6296L16.1854 30.837L29.6669 16.8741L32.3632 19.6667L18.8817 33.6296ZM36.5114 15.3704L33.8151 18.163L31.1188 15.3704L33.8151 12.5778C34.6447 11.7185 35.8891 11.7185 36.5114 12.5778C37.1336 13.437 37.341 14.7259 36.5114 15.3704Z" fill="$main-color"/>
</g>
<defs>
<clipPath id="clip0">
<rect width="28" height="29" fill="white" transform="translate(11 10)"/>
</clipPath>
</defs>
</svg>
