<svg width="30" height="29" viewBox="0 0 30 29" fill="none" xmlns="http://www.w3.org/2000/svg">
<path d="M21.75 0.5C19.14 0.5 16.635 1.715 15 3.635C13.365 1.715 10.86 0.5 8.25 0.5C3.63 0.5 0 4.13 0 8.75C0 14.42 5.1 19.04 12.825 26.06L15 28.025L17.175 26.045C24.9 19.04 30 14.42 30 8.75C30 4.13 26.37 0.5 21.75 0.5ZM15.15 23.825L15 23.975L14.85 23.825C7.71 17.36 3 13.085 3 8.75C3 5.75 5.25 3.5 8.25 3.5C10.56 3.5 12.81 4.985 13.605 7.04H16.41C17.19 4.985 19.44 3.5 21.75 3.5C24.75 3.5 27 5.75 27 8.75C27 13.085 22.29 17.36 15.15 23.825Z" fill="$main-color"/>
</svg>
