<svg width="131" height="44" viewBox="0 0 131 44" fill="none" xmlns="http://www.w3.org/2000/svg">
<path d="M40.4113 27H38.0208V12.8398H41.7483L46.0226 21.733L50.297 12.8398H54.0042V27H51.6138V15.9393L46.6709 25.7643H45.3339L40.4113 15.9393V27ZM59.9478 23.779L58.5297 27H55.9773L62.2166 12.8398H64.7691L71.0085 27H68.456L67.038 23.779H59.9478ZM66.0656 21.5709L63.4929 15.7367L60.9202 21.5709H66.0656ZM77.8392 12.8398C79.9865 12.8398 81.5531 13.2518 82.5389 14.0756C83.5248 14.8994 84.0178 16.1689 84.0178 17.884C84.0178 19.5992 83.5113 20.8552 82.4984 21.652C81.4991 22.4488 79.9595 22.8472 77.8797 22.8472H75.3677V27H72.9773V12.8398H77.8392ZM78.143 20.6796C79.4665 20.6796 80.3646 20.4297 80.8373 19.9301C81.3235 19.4169 81.5666 18.6741 81.5666 17.7017C81.5666 16.7158 81.2627 16.0203 80.655 15.6152C80.0472 15.21 79.0951 15.0074 77.7986 15.0074H75.3677V20.6796H78.143ZM91.6872 12.8398C93.8345 12.8398 95.4011 13.2518 96.387 14.0756C97.3729 14.8994 97.8658 16.1689 97.8658 17.884C97.8658 19.5992 97.3594 20.8552 96.3465 21.652C95.3471 22.4488 93.8075 22.8472 91.7277 22.8472H89.2158V27H86.8254V12.8398H91.6872ZM91.9911 20.6796C93.3146 20.6796 94.2127 20.4297 94.6854 19.9301C95.1715 19.4169 95.4146 18.6741 95.4146 17.7017C95.4146 16.7158 95.1108 16.0203 94.503 15.6152C93.8953 15.21 92.9432 15.0074 91.6467 15.0074H89.2158V20.6796H91.9911ZM100.673 12.8398H103.064V27H100.673V12.8398ZM117.599 12.8398H119.99V27H117.397L109.375 16.6686V27H106.984V12.8398H109.375L117.599 23.4144V12.8398Z" fill="black"/>
<ellipse cx="10" cy="31.9999" rx="8" ry="5" stroke="#2A9E67" stroke-width="2" stroke-dasharray="1 1"/>
<path fill-rule="evenodd" clip-rule="evenodd" d="M10.2501 32.8622C15.131 28.1496 20.5001 21.3624 20.5001 15.8966C20.5001 10.4309 15.911 6 10.2501 6C4.58911 6 0 10.4309 0 15.8966C0 21.3624 4.63693 27.4427 10.2501 32.8622ZM10.2503 19.4312C12.3976 19.4312 14.1383 17.6905 14.1383 15.5432C14.1383 13.396 12.3976 11.6553 10.2503 11.6553C8.10307 11.6553 6.36237 13.396 6.36237 15.5432C6.36237 17.6905 8.10307 19.4312 10.2503 19.4312Z" fill="#47E1AB"/>
</svg>
