<svg width="19" height="30" viewBox="0 0 14 30" fill="none" xmlns="http://www.w3.org/2000/svg">
<path d="M15 28H3" stroke="white" stroke-width="3" stroke-linecap="round" stroke-linejoin="round"/>
<path d="M9 2L9 21" stroke="white" stroke-width="3" stroke-linecap="round" stroke-linejoin="round"/>
<path fill-rule="evenodd" clip-rule="evenodd" d="M16.2105 13.9361C16.8671 13.431 17.8089 13.5539 18.314 14.2105C18.8191 14.8671 18.6962 15.8089 18.0396 16.314L9.93813 22.5459C9.83885 22.6256 9.73125 22.6911 9.61831 22.7421C9.20301 22.9304 8.72766 22.916 8.32887 22.7169C8.218 22.6616 8.11305 22.5919 8.01695 22.5084L0.539761 16.2774C-0.0966544 15.7471 -0.18264 14.8012 0.347706 14.1648C0.878052 13.5284 1.8239 13.4424 2.46031 13.9727L9.03755 19.4538L16.2105 13.9361Z" fill="white"/>
</svg>